# xmcd CD database file generated by MAGIX-FreeDB-Music_Manager_2007 v2.0beta1
# 
# Track frame offsets:
#      183
#      16968
#      34133
#      47158
#      63515
#      78465
#      94603
#      108528
#      128390
#      145003
# 
# Disc length: 2064 seconds
# 
# Revision: 0 
# Processed by: cddbd v1.5.2PL0 Copyright (c) Steve Scherf et al.
# Submitted via: MAGIX-FreeDB-Music_Manager_2007 v2.0beta1
# 
DISCID=7b080e0a
DTITLE=Gianni Morandi - per poter vivere
DYEAR=2000
DGENRE=Pop
TTITLE0=Gianni Morandi - Per poter vivere
TTITLE1=Gianni Morandi - /
TTITLE2=Gianni Morandi - /
TTITLE3=Gianni Morandi - /
TTITLE4=Gianni Morandi - /
TTITLE5=Gianni Morandi - /
TTITLE6=Gianni Morandi - /
TTITLE7=Gianni Morandi - /
TTITLE8=Gianni Morandi - /
TTITLE9=Gianni Morandi - /
EXTD=
EXTT0=
EXTT1=
EXTT2=
EXTT3=
EXTT4=
EXTT5=
EXTT6=
EXTT7=
EXTT8=
EXTT9=
PLAYORDER=
